<?xml version="1.0" encoding="utf-8"?>
<!-- Generator: Adobe Illustrator 16.0.0, SVG Export Plug-In . SVG Version: 6.00 Build 0)  -->
<!DOCTYPE svg PUBLIC "-//W3C//DTD SVG 1.1//EN" "http://www.w3.org/Graphics/SVG/1.1/DTD/svg11.dtd">
<svg version="1.1" id="圖層_1" xmlns="http://www.w3.org/2000/svg" xmlns:xlink="http://www.w3.org/1999/xlink" x="0px" y="0px"
	 width="256px" height="529px" viewBox="0 0 256 529" enable-background="new 0 0 256 529" xml:space="preserve">
<path fill="#FF5F8D" d="M231,13c0,6.627-5.373,12-12,12H37c-6.627,0-12-5.373-12-12v-1c0-6.627,5.373-12,12-12h182
	c6.627,0,12,5.373,12,12V13z"/>
<path fill="#FF5F8D" d="M244,35c6.627,0,12,5.373,12,12v182c0,6.627-5.373,12-12,12h-1c-6.627,0-12-5.373-12-12V47
	c0-6.627,5.373-12,12-12H244z"/>
<path fill="#FF5F8D" d="M244,290c6.627,0,12,5.373,12,12v182c0,6.628-5.373,12-12,12h-1c-6.627,0-12-5.372-12-12V302
	c0-6.627,5.373-12,12-12H244z"/>
<path fill="#FF5F8D" d="M13,35c6.627,0,12,5.373,12,12v182c0,6.627-5.373,12-12,12h-1c-6.627,0-12-5.373-12-12V47
	c0-6.627,5.373-12,12-12H13z"/>
<path fill="#FF5F8D" d="M13,290c6.627,0,12,5.373,12,12v182c0,6.628-5.373,12-12,12h-1c-6.627,0-12-5.372-12-12V302
	c0-6.627,5.373-12,12-12H13z"/>
<path fill="#FF5F8D" d="M231,265c0,6.627-5.373,12-12,12H37c-6.627,0-12-5.373-12-12v-1c0-6.627,5.373-12,12-12h182
	c6.627,0,12,5.373,12,12V265z"/>
<path fill="#FF5F8D" d="M231,517c0,6.627-5.373,12-12,12H37c-6.627,0-12-5.373-12-12v-1c0-6.627,5.373-12,12-12h182
	c6.627,0,12,5.373,12,12V517z"/>
<circle fill="#FF5F8D" cx="128" cy="138" r="32"/>
<circle fill="#FF5F8D" cx="128" cy="393" r="32"/>
</svg>
